name rise35.5848peak51.9257fall54.8793.mot
datacolumns 19
datarows 11
range 14.69661000000000 14.71326900000000
endheader
time	ground_force1_vx	ground_force1_vy	ground_force1_vz	ground_force1_px	ground_force1_py	ground_force1_pz	ground_force2_vx	ground_force2_vy	ground_force2_vz	ground_force2_px	ground_force2_py	ground_force2_pz	ground_torque1_x	ground_torque1_y	ground_torque1_z	ground_torque2_x	ground_torque2_y	ground_torque2_z	
14.69661000000000	-40.07679100000000	797.75062200000002	53.10757000000000	0.09010200000000	0.00000000000000	0.12428700000000	-1.55099900000000	10.94077900000000	0.71929700000000	0.00000000000000	0.00000000000000	0.00000000000000	0.00000000000000	20.23181800000000	0.00000000000000	0.00000000000000	0.10115800000000	0.00000000000000	
14.69827000000000	-40.70608000000000	796.91152799999998	53.00980600000000	0.08926200000000	0.00000000000000	0.12415900000000	-2.07351100000000	15.72568800000000	1.00289400000000	0.00000000000000	0.00000000000000	0.00000000000000	0.00000000000000	20.21542500000000	0.00000000000000	0.00000000000000	0.15533600000000	0.00000000000000	
14.69993500000000	-41.35447600000000	795.96660299999996	52.89701200000000	0.08842500000000	0.00000000000000	0.12402900000000	-2.62427100000000	21.12666200000000	1.31477200000000	0.00000000000000	0.00000000000000	0.00000000000000	0.00000000000000	20.20142500000000	0.00000000000000	0.00000000000000	0.21856900000000	0.00000000000000	
14.70160400000000	-42.02208400000000	794.91206399999999	52.76854700000000	0.08759300000000	0.00000000000000	0.12389800000000	-3.18332500000000	27.04785800000000	1.64709900000000	0.29239400000000	0.00000000000000	-0.07239300000000	0.00000000000000	20.18989900000000	0.00000000000000	0.00000000000000	0.54130200000000	0.00000000000000	
14.70327600000000	-42.70892600000000	793.74410699999999	52.62378300000000	0.08676400000000	0.00000000000000	0.12376400000000	-3.72944100000000	33.37524800000000	1.99104500000000	0.29898800000000	0.00000000000000	-0.07265700000000	0.00000000000000	20.18091000000000	0.00000000000000	0.00000000000000	0.69341100000000	0.00000000000000	
14.70494200000000	-43.41494000000000	792.45891900000004	52.46210100000000	0.08593900000000	0.00000000000000	0.12362800000000	-4.24164900000000	39.98639700000000	2.33745800000000	0.30480100000000	0.00000000000000	-0.07288100000000	0.00000000000000	20.17450400000000	0.00000000000000	0.00000000000000	0.85747400000000	0.00000000000000	
14.70660200000000	-44.13997100000000	791.05268100000001	52.28290100000000	0.08511700000000	0.00000000000000	0.12349000000000	-4.70072500000000	46.76057700000000	2.67754000000000	0.30996300000000	0.00000000000000	-0.07307200000000	0.00000000000000	20.17070900000000	0.00000000000000	0.00000000000000	1.03045800000000	0.00000000000000	
14.70826900000000	-44.88377600000000	789.52157499999998	52.08559900000000	0.08429900000000	0.00000000000000	0.12335000000000	-5.09039800000000	53.58786700000000	3.00343100000000	0.31457500000000	0.00000000000000	-0.07323800000000	0.00000000000000	20.16953100000000	0.00000000000000	0.00000000000000	1.20931000000000	0.00000000000000	
14.70994200000000	-45.64601400000000	787.86178700000005	51.86963600000000	0.08348500000000	0.00000000000000	0.12320800000000	-5.39819600000000	60.37627100000000	3.30865500000000	0.31871800000000	0.00000000000000	-0.07338300000000	0.00000000000000	20.17096000000000	0.00000000000000	0.00000000000000	1.39115300000000	0.00000000000000	
14.71160700000000	-46.42624900000000	786.06951800000002	51.63447400000000	0.08267400000000	0.00000000000000	0.12306400000000	-5.61586100000000	67.05634600000000	3.58837800000000	0.32245700000000	0.00000000000000	-0.07351200000000	0.00000000000000	20.17496500000000	0.00000000000000	0.00000000000000	1.57344500000000	0.00000000000000	
14.71326900000000	-47.22394500000000	784.14098799999999	51.37960400000000	0.08186600000000	0.00000000000000	0.12291800000000	-5.73936000000000	73.58326200000000	3.83950300000000	0.32584500000000	0.00000000000000	-0.07362700000000	0.00000000000000	20.18149200000000	0.00000000000000	0.00000000000000	1.75407900000000	0.00000000000000	
